{"asset":{"version":"2.0","generator":"VECTARY"},"nodes":[{"translation":[-0.09710313153266907,0.05,1.0658141036401503e-17],"scale":[0.001,0.001,0.001],"rotation":[-0.7071067811865475,0,0,0.7071067811865476],"name":"3D Text - F","mesh":0},{"translation":[-0.07387803387641907,0.05,1.0658141036401503e-17],"scale":[0.001,0.001,0.001],"rotation":[-0.7071067811865475,0,0,0.7071067811865476],"name":"3D Text - r","mesh":1},{"translation":[-0.05550889325141907,0.05,1.0658141036401503e-17],"scale":[0.001,0.001,0.001],"rotation":[-0.7071067811865475,0,0,0.7071067811865476],"name":"3D Text - e","mesh":2},{"translation":[-0.030262311220169067,0.05,1.0658141036401503e-17],"scale":[0.001,0.001,0.001],"rotation":[-0.7071067811865475,0,0,0.7071067811865476],"name":"3D Text - e","mesh":3},{"translation":[-0.005015729188919068,0.05,1.0658141036401503e-17],"scale":[0.001,0.001,0.001],"rotation":[-0.7071067811865475,0,0,0.7071067811865476],"name":"3D Text - d","mesh":4},{"translation":[0.022559954404830933,0.05,1.0658141036401503e-17],"scale":[0.001,0.001,0.001],"rotation":[-0.7071067811865475,0,0,0.7071067811865476],"name":"3D Text - o","mesh":5},{"translation":[0.049740130186080936,0.05,1.0658141036401503e-17],"scale":[0.001,0.001,0.001],"rotation":[-0.7071067811865475,0,0,0.7071067811865476],"name":"3D Text - m","mesh":6},{"translation":[-0.02201811507344246,0.1,2.1316282072803006e-17],"scale":[0.001,0.001,0.001],"rotation":[-0.7071067811865475,0,0,0.7071067811865476],"name":"3D Text - t","mesh":7},{"translation":[-0.006131884604692459,0.1,2.1316282072803006e-17],"scale":[0.001,0.001,0.001],"rotation":[-0.7071067811865475,0,0,0.7071067811865476],"name":"3D Text - o","mesh":8},{"translation":[-0.04624600580334663,0.15,2.842170943040401e-17],"scale":[0.001,0.001,0.001],"rotation":[-0.7071067811865475,0,0,0.7071067811865476],"name":"3D Text - W","mesh":9},{"translation":[-0.004585849553346634,0.15,2.842170943040401e-17],"scale":[0.001,0.001,0.001],"rotation":[-0.7071067811865475,0,0,0.7071067811865476],"name":"3D Text - a","mesh":10},{"translation":[0.020441005915403366,0.15,2.842170943040401e-17],"scale":[0.001,0.001,0.001],"rotation":[-0.7071067811865475,0,0,0.7071067811865476],"name":"3D Text - y","mesh":11},{"translation":[-0.049852220535278324,0.2,4.263256414560601e-17],"scale":[0.001,0.001,0.001],"rotation":[-0.7071067811865475,0,0,0.7071067811865476],"name":"3D Text - Y","mesh":12},{"translation":[-0.02464958381652832,0.2,4.263256414560601e-17],"scale":[0.001,0.001,0.001],"rotation":[-0.7071067811865475,0,0,0.7071067811865476],"name":"3D Text - o","mesh":13},{"translation":[0.0025305919647216797,0.2,4.263256414560601e-17],"scale":[0.001,0.001,0.001],"rotation":[-0.7071067811865475,0,0,0.7071067811865476],"name":"3D Text - u","mesh":14},{"translation":[0.03015022087097168,0.2,4.263256414560601e-17],"scale":[0.001,0.001,0.001],"rotation":[-0.7071067811865475,0,0,0.7071067811865476],"name":"3D Text - r","mesh":15},{"translation":[-0.05581776523590088,0.25,4.263256414560601e-17],"scale":[0.001,0.001,0.001],"rotation":[-0.7071067811865475,0,0,0.7071067811865476],"name":"3D Text - C","mesh":16},{"translation":[-0.02742909336090088,0.25,4.263256414560601e-17],"scale":[0.001,0.001,0.001],"rotation":[-0.7071067811865475,0,0,0.7071067811865476],"name":"3D Text - o","mesh":17},{"translation":[-0.0002489175796508789,0.25,4.263256414560601e-17],"scale":[0.001,0.001,0.001],"rotation":[-0.7071067811865475,0,0,0.7071067811865476],"name":"3D Text - d","mesh":18},{"translation":[0.02732676601409912,0.25,4.263256414560601e-17],"scale":[0.001,0.001,0.001],"rotation":[-0.7071067811865475,0,0,0.7071067811865476],"name":"3D Text - e","mesh":19}],"materials":[{"pbrMetallicRoughness":{"baseColorFactor":[0.8670237934377415,0.8670237934377415,0.8670237934377415,1],"metallicFactor":0,"roughnessFactor":0.2},"name":"Floral Scent","emissiveFactor":[0,0,0],"extensions":{},"alphaMode":"OPAQUE","doubleSided":false}],"meshes":[{"primitives":[{"mode":4,"attributes":{"POSITION":1,"NORMAL":2,"TEXCOORD_0":3},"material":0,"indices":0}]},{"primitives":[{"mode":4,"attributes":{"POSITION":5,"NORMAL":6,"TEXCOORD_0":7},"material":0,"indices":4}]},{"primitives":[{"mode":4,"attributes":{"POSITION":9,"NORMAL":10,"TEXCOORD_0":11},"material":0,"indices":8}]},{"primitives":[{"mode":4,"attributes":{"POSITION":9,"NORMAL":10,"TEXCOORD_0":11},"material":0,"indices":8}]},{"primitives":[{"mode":4,"attributes":{"POSITION":13,"NORMAL":14,"TEXCOORD_0":15},"material":0,"indices":12}]},{"primitives":[{"mode":4,"attributes":{"POSITION":17,"NORMAL":18,"TEXCOORD_0":19},"material":0,"indices":16}]},{"primitives":[{"mode":4,"attributes":{"POSITION":21,"NORMAL":22,"TEXCOORD_0":23},"material":0,"indices":20}]},{"primitives":[{"mode":4,"attributes":{"POSITION":25,"NORMAL":26,"TEXCOORD_0":27},"material":0,"indices":24}]},{"primitives":[{"mode":4,"attributes":{"POSITION":17,"NORMAL":18,"TEXCOORD_0":19},"material":0,"indices":16}]},{"primitives":[{"mode":4,"attributes":{"POSITION":29,"NORMAL":30,"TEXCOORD_0":31},"material":0,"indices":28}]},{"primitives":[{"mode":4,"attributes":{"POSITION":33,"NORMAL":34,"TEXCOORD_0":35},"material":0,"indices":32}]},{"primitives":[{"mode":4,"attributes":{"POSITION":37,"NORMAL":38,"TEXCOORD_0":39},"material":0,"indices":36}]},{"primitives":[{"mode":4,"attributes":{"POSITION":41,"NORMAL":42,"TEXCOORD_0":43},"material":0,"indices":40}]},{"primitives":[{"mode":4,"attributes":{"POSITION":17,"NORMAL":18,"TEXCOORD_0":19},"material":0,"indices":16}]},{"primitives":[{"mode":4,"attributes":{"POSITION":45,"NORMAL":46,"TEXCOORD_0":47},"material":0,"indices":44}]},{"primitives":[{"mode":4,"attributes":{"POSITION":5,"NORMAL":6,"TEXCOORD_0":7},"material":0,"indices":4}]},{"primitives":[{"mode":4,"attributes":{"POSITION":49,"NORMAL":50,"TEXCOORD_0":51},"material":0,"indices":48}]},{"primitives":[{"mode":4,"attributes":{"POSITION":17,"NORMAL":18,"TEXCOORD_0":19},"material":0,"indices":16}]},{"primitives":[{"mode":4,"attributes":{"POSITION":13,"NORMAL":14,"TEXCOORD_0":15},"material":0,"indices":12}]},{"primitives":[{"mode":4,"attributes":{"POSITION":9,"NORMAL":10,"TEXCOORD_0":11},"material":0,"indices":8}]}],"accessors":[{"bufferView":0,"byteOffset":0,"componentType":5125,"count":108,"type":"SCALAR"},{"bufferView":1,"byteOffset":0,"componentType":5126,"count":69,"max":[24.80500030517578,2.1855658677570914e-15,35.69300079345703],"min":[4.9070000648498535,-15,0],"type":"VEC3"},{"bufferView":2,"byteOffset":0,"componentType":5126,"count":69,"type":"VEC3"},{"bufferView":3,"byteOffset":0,"componentType":5126,"count":69,"type":"VEC2"},{"bufferView":4,"byteOffset":0,"componentType":5125,"count":432,"type":"SCALAR"},{"bufferView":5,"byteOffset":0,"componentType":5126,"count":290,"max":[19.70199966430664,1.6683363158236856e-15,27.246000289916992],"min":[4.296999931335449,-15,0],"type":"VEC3"},{"bufferView":6,"byteOffset":0,"componentType":5126,"count":290,"type":"VEC3"},{"bufferView":7,"byteOffset":0,"componentType":5126,"count":290,"type":"VEC2"},{"bufferView":8,"byteOffset":0,"componentType":5125,"count":948,"type":"SCALAR"},{"bufferView":9,"byteOffset":0,"componentType":5126,"count":630,"max":[25.43899917602539,1.6683363158236856e-15,27.246000289916992],"min":[2.808000087738037,-15,-0.4880000054836273],"type":"VEC3"},{"bufferView":10,"byteOffset":0,"componentType":5126,"count":630,"type":"VEC3"},{"bufferView":11,"byteOffset":0,"componentType":5126,"count":630,"type":"VEC2"},{"bufferView":12,"byteOffset":0,"componentType":5125,"count":960,"type":"SCALAR"},{"bufferView":13,"byteOffset":0,"componentType":5126,"count":642,"max":[26.343000411987305,2.326094139420737e-15,37.987998962402344],"min":[2.808000087738037,-15,-0.4880000054836273],"type":"VEC3"},{"bufferView":14,"byteOffset":0,"componentType":5126,"count":642,"type":"VEC3"},{"bufferView":15,"byteOffset":0,"componentType":5126,"count":642,"type":"VEC2"},{"bufferView":16,"byteOffset":0,"componentType":5125,"count":1020,"type":"SCALAR"},{"bufferView":17,"byteOffset":0,"componentType":5126,"count":678,"max":[27.39299964904785,1.6683363158236856e-15,27.246000289916992],"min":[2.808000087738037,-15,-0.4880000054836273],"type":"VEC3"},{"bufferView":18,"byteOffset":0,"componentType":5126,"count":678,"type":"VEC3"},{"bufferView":19,"byteOffset":0,"componentType":5126,"count":678,"type":"VEC2"},{"bufferView":20,"byteOffset":0,"componentType":5125,"count":1044,"type":"SCALAR"},{"bufferView":21,"byteOffset":0,"componentType":5126,"count":698,"max":[42.45600128173828,1.6683363158236856e-15,27.246000289916992],"min":[4.296999931335449,-15,0],"type":"VEC3"},{"bufferView":22,"byteOffset":0,"componentType":5126,"count":698,"type":"VEC3"},{"bufferView":23,"byteOffset":0,"componentType":5126,"count":698,"type":"VEC2"},{"bufferView":24,"byteOffset":0,"componentType":5125,"count":552,"type":"SCALAR"},{"bufferView":25,"byteOffset":0,"componentType":5126,"count":366,"max":[16.601999282836914,2.018156581995857e-15,32.95899963378906],"min":[0.7570000290870667,-15,-0.4880000054836273],"type":"VEC3"},{"bufferView":26,"byteOffset":0,"componentType":5126,"count":366,"type":"VEC3"},{"bufferView":27,"byteOffset":0,"componentType":5126,"count":366,"type":"VEC2"},{"bufferView":28,"byteOffset":0,"componentType":5125,"count":564,"type":"SCALAR"},{"bufferView":29,"byteOffset":0,"componentType":5126,"count":382,"max":[45.60499954223633,2.1855658677570914e-15,35.69300079345703],"min":[0.6589999794960022,-15,0],"type":"VEC3"},{"bufferView":30,"byteOffset":0,"componentType":5126,"count":382,"type":"VEC3"},{"bufferView":31,"byteOffset":0,"componentType":5126,"count":382,"type":"VEC2"},{"bufferView":32,"byteOffset":0,"componentType":5125,"count":1188,"type":"SCALAR"},{"bufferView":33,"byteOffset":0,"componentType":5126,"count":794,"max":[23.7549991607666,1.6653360192453925e-15,27.19700050354004],"min":[2.2950000762939453,-15,-0.4880000054836273],"type":"VEC3"},{"bufferView":34,"byteOffset":0,"componentType":5126,"count":794,"type":"VEC3"},{"bufferView":35,"byteOffset":0,"componentType":5126,"count":794,"type":"VEC2"},{"bufferView":36,"byteOffset":0,"componentType":5125,"count":564,"type":"SCALAR"},{"bufferView":37,"byteOffset":0,"componentType":5126,"count":377,"max":[25.145999908447266,1.6384548992686853e-15,26.757999420166016],"min":[0.04899999871850014,-15,-12.01200008392334],"type":"VEC3"},{"bufferView":38,"byteOffset":0,"componentType":5126,"count":377,"type":"VEC3"},{"bufferView":39,"byteOffset":0,"componentType":5126,"count":377,"type":"VEC2"},{"bufferView":40,"byteOffset":0,"componentType":5125,"count":96,"type":"SCALAR"},{"bufferView":41,"byteOffset":0,"componentType":5126,"count":66,"max":[28.003000259399414,2.1855658677570914e-15,35.69300079345703],"min":[0,-15,0],"type":"VEC3"},{"bufferView":42,"byteOffset":0,"componentType":5126,"count":66,"type":"VEC3"},{"bufferView":43,"byteOffset":0,"componentType":5126,"count":66,"type":"VEC2"},{"bufferView":44,"byteOffset":0,"componentType":5125,"count":576,"type":"SCALAR"},{"bufferView":45,"byteOffset":0,"componentType":5126,"count":388,"max":[26.392000198364258,1.6384548992686853e-15,26.757999420166016],"min":[4.004000186920166,-15,-0.4880000054836273],"type":"VEC3"},{"bufferView":46,"byteOffset":0,"componentType":5126,"count":388,"type":"VEC3"},{"bufferView":47,"byteOffset":0,"componentType":5126,"count":388,"type":"VEC2"},{"bufferView":48,"byteOffset":0,"componentType":5125,"count":792,"type":"SCALAR"},{"bufferView":49,"byteOffset":0,"componentType":5126,"count":530,"max":[30.054000854492188,2.216978084606017e-15,36.20600128173828],"min":[3.052000045776367,-15,-0.4880000054836273],"type":"VEC3"},{"bufferView":50,"byteOffset":0,"componentType":5126,"count":530,"type":"VEC3"},{"bufferView":51,"byteOffset":0,"componentType":5126,"count":530,"type":"VEC2"}],"bufferViews":[{"buffer":0,"byteOffset":0,"byteLength":432,"target":34963},{"buffer":0,"byteOffset":432,"byteLength":828,"target":34962},{"buffer":0,"byteOffset":1260,"byteLength":828,"target":34962},{"buffer":0,"byteOffset":2088,"byteLength":552,"target":34962},{"buffer":0,"byteOffset":2640,"byteLength":1728,"target":34963},{"buffer":0,"byteOffset":4368,"byteLength":3480,"target":34962},{"buffer":0,"byteOffset":7848,"byteLength":3480,"target":34962},{"buffer":0,"byteOffset":11328,"byteLength":2320,"target":34962},{"buffer":0,"byteOffset":13648,"byteLength":3792,"target":34963},{"buffer":0,"byteOffset":17440,"byteLength":7560,"target":34962},{"buffer":0,"byteOffset":25000,"byteLength":7560,"target":34962},{"buffer":0,"byteOffset":32560,"byteLength":5040,"target":34962},{"buffer":0,"byteOffset":37600,"byteLength":3840,"target":34963},{"buffer":0,"byteOffset":41440,"byteLength":7704,"target":34962},{"buffer":0,"byteOffset":49144,"byteLength":7704,"target":34962},{"buffer":0,"byteOffset":56848,"byteLength":5136,"target":34962},{"buffer":0,"byteOffset":61984,"byteLength":4080,"target":34963},{"buffer":0,"byteOffset":66064,"byteLength":8136,"target":34962},{"buffer":0,"byteOffset":74200,"byteLength":8136,"target":34962},{"buffer":0,"byteOffset":82336,"byteLength":5424,"target":34962},{"buffer":0,"byteOffset":87760,"byteLength":4176,"target":34963},{"buffer":0,"byteOffset":91936,"byteLength":8376,"target":34962},{"buffer":0,"byteOffset":100312,"byteLength":8376,"target":34962},{"buffer":0,"byteOffset":108688,"byteLength":5584,"target":34962},{"buffer":0,"byteOffset":114272,"byteLength":2208,"target":34963},{"buffer":0,"byteOffset":116480,"byteLength":4392,"target":34962},{"buffer":0,"byteOffset":120872,"byteLength":4392,"target":34962},{"buffer":0,"byteOffset":125264,"byteLength":2928,"target":34962},{"buffer":0,"byteOffset":128192,"byteLength":2256,"target":34963},{"buffer":0,"byteOffset":130448,"byteLength":4584,"target":34962},{"buffer":0,"byteOffset":135032,"byteLength":4584,"target":34962},{"buffer":0,"byteOffset":139616,"byteLength":3056,"target":34962},{"buffer":0,"byteOffset":142672,"byteLength":4752,"target":34963},{"buffer":0,"byteOffset":147424,"byteLength":9528,"target":34962},{"buffer":0,"byteOffset":156952,"byteLength":9528,"target":34962},{"buffer":0,"byteOffset":166480,"byteLength":6352,"target":34962},{"buffer":0,"byteOffset":172832,"byteLength":2256,"target":34963},{"buffer":0,"byteOffset":175088,"byteLength":4524,"target":34962},{"buffer":0,"byteOffset":179612,"byteLength":4524,"target":34962},{"buffer":0,"byteOffset":184136,"byteLength":3016,"target":34962},{"buffer":0,"byteOffset":187152,"byteLength":384,"target":34963},{"buffer":0,"byteOffset":187536,"byteLength":792,"target":34962},{"buffer":0,"byteOffset":188328,"byteLength":792,"target":34962},{"buffer":0,"byteOffset":189120,"byteLength":528,"target":34962},{"buffer":0,"byteOffset":189648,"byteLength":2304,"target":34963},{"buffer":0,"byteOffset":191952,"byteLength":4656,"target":34962},{"buffer":0,"byteOffset":196608,"byteLength":4656,"target":34962},{"buffer":0,"byteOffset":201264,"byteLength":3104,"target":34962},{"buffer":0,"byteOffset":204368,"byteLength":3168,"target":34963},{"buffer":0,"byteOffset":207536,"byteLength":6360,"target":34962},{"buffer":0,"byteOffset":213896,"byteLength":6360,"target":34962},{"buffer":0,"byteOffset":220256,"byteLength":4240,"target":34962}],"scene":0,"scenes":[{"nodes":[0,1,2,3,4,5,6,7,8,9,10,11,12,13,14,15,16,17,18,19],"name":"Project Name"}],"extensionsUsed":["KHR_texture_transform"],"buffers":[{"byteLength":224496,"uri":"ProjectName.bin"}]}